<?xml version="1.0" encoding="UTF-8"?>
<!-- Generator: Adobe Illustrator 21.1.0, SVG Export Plug-In . SVG Version: 6.00 Build 0)  -->
<svg version="1.1" id="Wolv" xmlns="http://www.w3.org/2000/svg" xmlns:xlink="http://www.w3.org/1999/xlink" x="0px" y="0px" viewBox="0 0 1000 1000" style="enable-background:new 0 0 1000 1000;" xml:space="preserve">
<style type="text/css">
	.st0{fill:#91E2CD;}
	.st1{fill:#DDA957;}
	.st2{fill:#BF8F49;}
	.st3{fill:#352B1C;}
	.st4{fill:#081316;}
	.st5{fill:#EDF3F4;}
	.st6{fill:#BC905B;}
	.st7{fill:#916F4A;}
	.st8{fill:none;stroke:#BF8F49;stroke-width:14;stroke-linecap:round;stroke-linejoin:round;stroke-miterlimit:10;}
</style>
<rect class="st0" width="1000" height="1000"/>
<g>
	<polygon class="st1" points="787.8,70.7 697.4,262 490.4,262 283.3,262 192.9,70.7 63.8,580.9 128.3,636.6 128.3,736.6    220.7,716.3 220.7,799.9 305.5,774.5 490.4,930.2 675.2,774.5 760,799.9 760,716.3 852.4,736.6 852.4,636.6 916.9,580.9  "/>
	<polygon class="st2" points="283.3,262 303.6,300 339.1,262  "/>
	<polygon class="st2" points="697.4,262 677,300 641.5,262  "/>
	<g>
		<polygon class="st2" points="305.5,774.5 329.6,765.6 329.6,794.8   "/>
		<polygon class="st2" points="220.7,716.3 270.6,703 220.7,758   "/>
		<polygon class="st2" points="128.3,636.6 128.3,559.8 99.8,611.9   "/>
	</g>
	<g>
		<polygon class="st2" points="675.2,774.5 651.1,765.6 651.1,794.8   "/>
		<polygon class="st2" points="760,716.3 710.1,703 760,758   "/>
		<polygon class="st2" points="852.4,636.6 852.4,559.8 880.9,611.9   "/>
	</g>
	<path class="st2" d="M498.9,776.9c4.8-2.5,6.1,0.8,6.1-4.6v-45.4v-38.1c0-8.1-6.5-14.6-14.6-14.6l0,0c-8.1,0-14.6,6.5-14.6,14.6   v38.1v45.4c0,5.4,3,3.7,7.7,6.3l3.9-3.5c4.3,2.3,5.6,5.8,9.9,3.5L498.9,776.9z"/>
	<path class="st3" d="M490.4,616.1h61.6c20.8,0,30.9,25.4,15.9,39.7l-17.9,17l-43.7,41.6c-8.9,8.5-22.9,8.5-31.8,0l-43.7-41.6   l-17.9-17c-15-14.3-4.9-39.7,15.9-39.7H490.4z"/>
	<g>
		<path class="st2" d="M428.5,548.8L428.5,548.8c-11.1,35.2-48.6,54.7-83.7,43.6l-11.9-3.8c-35.2-11.1-54.7-48.6-43.6-83.7l0,0    c11.1-35.2,48.6-54.7,83.7-43.6l11.9,3.8C420.1,476.2,439.6,513.6,428.5,548.8z"/>
		<g>
			<path class="st4" d="M428.5,519.6L428.5,519.6c-11.1,35.2-48.6,54.7-83.7,43.6l-11.9-3.8c-35.2-11.1-54.7-48.6-43.6-83.7l0,0     c11.1-35.2,48.6-54.7,83.7-43.6l11.9,3.8C420.1,446.9,439.6,484.4,428.5,519.6z"/>
			
				<ellipse transform="matrix(0.3005 -0.9538 0.9538 0.3005 -198.2864 697.4176)" class="st5" cx="376.3" cy="483.9" rx="32.3" ry="32.3"/>
		</g>
		<polygon class="st6" points="258.6,329 197.6,179 156.6,396   "/>
		<path class="st7" d="M258.6,329l-21.9-53.9c-40.7,26.7-69.8,69.6-78.1,119.6L258.6,329z"/>
		<polygon class="st2" points="108.5,404.2 108.5,483.9 93.5,463.5   "/>
	</g>
	<g>
		<path class="st2" d="M552.2,548.8L552.2,548.8c11.1,35.2,48.6,54.7,83.7,43.6l11.9-3.8c35.2-11.1,54.7-48.6,43.6-83.7l0,0    c-11.1-35.2-48.6-54.7-83.7-43.6l-11.9,3.8C560.6,476.2,541.1,513.6,552.2,548.8z"/>
		<g>
			<path class="st4" d="M552.2,519.6L552.2,519.6c11.1,35.2,48.6,54.7,83.7,43.6l11.9-3.8c35.2-11.1,54.7-48.6,43.6-83.7l0,0     c-11.1-35.2-48.6-54.7-83.7-43.6l-11.9,3.8C560.6,446.9,541.1,484.4,552.2,519.6z"/>
			
				<ellipse transform="matrix(0.9538 -0.3005 0.3005 0.9538 -117.4641 203.9644)" class="st5" cx="604.4" cy="483.9" rx="32.3" ry="32.3"/>
		</g>
		<polygon class="st6" points="722.1,329 783.1,179 824.1,396   "/>
		<path class="st7" d="M722.1,329l21.9-53.9c40.7,26.7,69.8,69.6,78.1,119.6L722.1,329z"/>
		<polygon class="st2" points="872.2,404.2 872.2,483.9 887.2,463.5   "/>
	</g>
	<path class="st8" d="M569.3,766.9c0,8.5-23.7,19.9-39.3,19.9s-39.6-9.5-39.6-19.9c0,8.5-23.7,19.9-39.3,19.9   c-15.6,0-39.6-9.5-39.6-19.9"/>
</g>
</svg>